<svg width="100" height="100" viewBox="0 0 100 100" fill="none" xmlns="http://www.w3.org/2000/svg">
<path d="M90.883 44.5493L85.507 41.8827V29.2667C85.5028 25.4842 83.9983 21.8579 81.3237 19.1833C78.6491 16.5087 75.0228 15.0042 71.2403 15H29.3083C25.5259 15.0042 21.8996 16.5087 19.225 19.1833C16.5504 21.8579 15.0459 25.4842 15.0417 29.2667V41.9333L9.92033 44.68C9.00825 45.1688 8.25147 45.9035 7.73589 46.8007C7.22032 47.6979 6.96659 48.7217 7.00353 49.7558C7.04046 50.79 7.36657 51.7931 7.94484 52.6512C8.52311 53.5093 9.33037 54.1882 10.275 54.6107L15.043 56.744V71.2C15.0472 74.9825 16.5517 78.6088 19.2263 81.2834C21.9009 83.958 25.5272 85.4624 29.3097 85.4667H71.243C75.0255 85.4624 78.6518 83.958 81.3264 81.2834C84.001 78.6088 85.5054 74.9825 85.5097 71.2V56.7733L90.6017 54.5947C91.5734 54.1788 92.4058 53.4933 93.0003 52.6193C93.5948 51.7454 93.9266 50.7194 93.9564 49.6628C93.9863 48.6062 93.713 47.5632 93.1688 46.657C92.6246 45.7509 91.8324 45.0195 90.8857 44.5493H90.883ZM88.5003 49.6907L81.791 52.5613C81.311 52.7668 80.9018 53.1087 80.6143 53.5446C80.3268 53.9805 80.1736 54.4912 80.1737 55.0133V71.2C80.1715 73.5686 79.2297 75.8396 77.5548 77.5145C75.8799 79.1893 73.6089 80.1312 71.2403 80.1333H29.3083C26.9397 80.1312 24.6687 79.1893 22.9938 77.5145C21.319 75.8396 20.3771 73.5686 20.375 71.2V55.0133C20.3751 54.4986 20.2263 53.9948 19.9464 53.5628C19.6665 53.1307 19.2675 52.7889 18.7977 52.5787L12.451 49.7413C12.4166 49.726 12.3872 49.7014 12.3661 49.6702C12.345 49.639 12.3331 49.6025 12.3317 49.5648C12.3303 49.5272 12.3395 49.4899 12.3582 49.4572C12.377 49.4246 12.4045 49.3978 12.4377 49.38L18.971 45.8813C19.396 45.6535 19.7512 45.3147 19.9989 44.901C20.2466 44.4873 20.3775 44.0142 20.3777 43.532V29.2653C20.3798 26.8967 21.3217 24.6257 22.9965 22.9509C24.6714 21.276 26.9424 20.3341 29.311 20.332H71.2443C73.6129 20.3341 75.8839 21.276 77.5588 22.9509C79.2337 24.6257 80.1755 26.8967 80.1777 29.2653V43.532C80.1777 44.0283 80.3162 44.5148 80.5777 44.9367C80.8392 45.3586 81.2132 45.6991 81.6577 45.92L88.515 49.3253C88.5494 49.3425 88.5782 49.3691 88.5979 49.4021C88.6177 49.4351 88.6276 49.473 88.6265 49.5114C88.6253 49.5498 88.6132 49.5871 88.5916 49.6189C88.5699 49.6507 88.5397 49.6756 88.5043 49.6907H88.5003Z" fill="url(#paint0_linear_242_119)"/>
<path d="M64.447 41.2415C64.4435 38.1802 63.2258 35.2453 61.0612 33.0807C58.8965 30.916 55.9616 29.6984 52.9003 29.6948H38.767C38.0598 29.6948 37.3815 29.9758 36.8814 30.4759C36.3813 30.976 36.1003 31.6542 36.1003 32.3615V50.1215C36.1003 50.1588 36.1003 50.1962 36.1003 50.2335C36.1003 50.2708 36.1003 50.3082 36.1003 50.3455V68.1002C36.1003 68.8074 36.3813 69.4857 36.8814 69.9858C37.3815 70.4859 38.0598 70.7668 38.767 70.7668H52.9003C55.2897 70.7681 57.6205 70.0278 59.5712 68.6481C61.5219 67.2684 62.9963 65.3173 63.7909 63.064C64.5856 60.8107 64.6613 58.3663 64.0077 56.0681C63.354 53.77 62.0032 51.7313 60.1417 50.2335C61.4864 49.1523 62.5713 47.7831 63.3164 46.2268C64.0615 44.6706 64.4479 42.9669 64.447 41.2415ZM41.4363 35.0335H52.903C54.5509 35.0335 56.1313 35.6881 57.2965 36.8533C58.4617 38.0186 59.1163 39.5989 59.1163 41.2468C59.1163 42.8947 58.4617 44.4751 57.2965 45.6403C56.1313 46.8055 54.5509 47.4602 52.903 47.4602H41.4363V35.0335ZM52.903 65.4442H41.4363V53.0175H52.903C54.5509 53.0175 56.1313 53.6721 57.2965 54.8373C58.4617 56.0026 59.1163 57.5829 59.1163 59.2308C59.1163 60.8787 58.4617 62.4591 57.2965 63.6243C56.1313 64.7895 54.5509 65.4442 52.903 65.4442Z" fill="url(#paint1_linear_242_119)"/>
<defs>
<linearGradient id="paint0_linear_242_119" x1="50.4793" y1="15" x2="50.4793" y2="85.4667" gradientUnits="userSpaceOnUse">
<stop stop-color="#A3DFB7"/>
<stop offset="0.5" stop-color="#2A98DC"/>
<stop offset="1" stop-color="#6DDBDF"/>
</linearGradient>
<linearGradient id="paint1_linear_242_119" x1="50.2741" y1="29.6948" x2="50.2741" y2="70.7668" gradientUnits="userSpaceOnUse">
<stop stop-color="#A3DFB7"/>
<stop offset="0.5" stop-color="#2A98DC"/>
<stop offset="1" stop-color="#6DDBDF"/>
</linearGradient>
</defs>
</svg>
