<svg width="80" height="80" viewBox="0 0 80 80" fill="none" xmlns="http://www.w3.org/2000/svg">
<path d="M39.9998 0C30.5018 0.000403823 21.3138 3.46595 14.0799 9.77656C6.84593 16.0872 2.0381 24.831 0.516638 34.4436C-1.00482 44.0562 0.859374 53.9102 5.77567 62.2424C10.692 70.5747 18.3395 76.8415 27.35 79.9215C29.35 80.2804 30.1 79.0501 30.1 77.9734C30.1 76.9994 30.0499 73.7697 30.0499 70.335C20 72.2318 17.4 67.8232 16.6 65.5163C15.7123 63.2726 14.3051 61.2844 12.5 59.7233C11.1 58.9543 9.10005 57.0575 12.45 57.0063C13.7291 57.1486 14.956 57.605 16.0265 58.3367C17.0971 59.0685 17.9798 60.054 18.6 61.2099C19.1471 62.2176 19.8827 63.1046 20.7647 63.8203C21.6468 64.5359 22.6578 65.0661 23.7401 65.3804C24.8223 65.6947 25.9544 65.787 27.0714 65.652C28.1885 65.5169 29.2686 65.1572 30.2498 64.5934C30.423 62.5084 31.3292 60.5591 32.7999 59.1082C23.8999 58.0829 14.6 54.5455 14.6 38.8587C14.5438 34.7827 16.0107 30.8392 18.7 27.8368C17.4771 24.2943 17.6202 20.4067 19.1 16.9687C19.1 16.9687 22.4498 15.8921 30.0999 21.1724C36.645 19.3268 43.5547 19.3268 50.0998 21.1724C57.7496 15.8409 61.0997 16.9687 61.0997 16.9687C62.5797 20.4066 62.7227 24.2943 61.4997 27.8368C64.197 30.834 65.6652 34.781 65.5996 38.8587C65.5996 54.5968 56.2496 58.0829 47.3498 59.1082C48.3044 60.1002 49.0396 61.2913 49.5054 62.6004C49.9713 63.9095 50.157 65.3062 50.0498 66.6954C50.0498 72.1808 49.9997 76.5894 49.9997 77.9736C49.9997 79.0502 50.7497 80.3318 52.7497 79.9217C61.7443 76.8165 69.3699 70.5351 74.2652 62.1985C79.1606 53.862 81.0071 44.013 79.4751 34.4098C77.9431 24.8065 73.1323 16.074 65.9015 9.77108C58.6707 3.46815 49.4906 0.00506456 39.9998 0V0Z" fill="url(#paint0_linear_229_95)"/>
<defs>
<linearGradient id="paint0_linear_229_95" x1="40" y1="0" x2="40" y2="80" gradientUnits="userSpaceOnUse">
<stop stop-color="#A3DFB7"/>
<stop offset="0.5" stop-color="#2A98DC"/>
<stop offset="1" stop-color="#6DDBDF"/>
</linearGradient>
</defs>
</svg>
