<svg width="67" height="68" viewBox="0 0 67 68" fill="none" xmlns="http://www.w3.org/2000/svg">
                    <path
                        d="M26.0788 18.6443L25.7771 17.6909L25.3986 17.8106L25.2053 18.1574L26.0788 18.6443ZM18.5594 32.1327L17.686 31.6458L16.641 33.5204L18.7485 33.1147L18.5594 32.1327ZM63.6804 14.8724L64.6456 15.1337L65.276 12.8049L63.183 14.0049L63.6804 14.8724ZM52.4157 56.4853L52.6615 57.4546L53.2282 57.3109L53.381 56.7466L52.4157 56.4853ZM54.316 1.12548L54.8093 0.255629L54.4503 0.0520509L54.0523 0.160879L54.316 1.12548ZM64.0318 6.63559L64.3335 7.589L66.5201 6.89714L64.5251 5.76574L64.0318 6.63559ZM2.81991 52.5063L1.85669 52.2376L1.17488 54.6817L3.34084 53.3599L2.81991 52.5063ZM14.0847 12.1244L13.821 11.1598L13.2739 11.3093L13.1215 11.8557L14.0847 12.1244ZM42.6323 48.5235L42.9199 49.4813L43.4079 49.3347L43.5762 48.8537L42.6323 48.5235ZM47.0095 36.0122L47.9534 36.3424L48.5153 34.7363L46.8387 35.0269L47.0095 36.0122ZM41.166 27.7804L41.3551 28.7624L41.5188 28.7308L41.6634 28.6479L41.166 27.7804ZM14.7225 66.2286L14.2896 67.1301L14.6225 67.2899L14.9794 67.195L14.7225 66.2286ZM2.77645 60.492L2.48885 59.5342L0.0174224 60.2764L2.34357 61.3934L2.77645 60.492ZM23.0393 40.1668L22.8685 39.1815L22.6809 39.214L22.5184 39.3132L23.0393 40.1668ZM29.6868 62.2495L29.441 61.2801L29.4299 61.2831L29.6868 62.2495ZM25.2053 18.1574L17.686 31.6458L19.4329 32.6196L26.9522 19.1312L25.2053 18.1574ZM62.7151 14.6111L51.4505 56.224L53.381 56.7466L64.6456 15.1337L62.7151 14.6111ZM53.8227 1.99533L63.5385 7.50544L64.5251 5.76574L54.8093 0.255629L53.8227 1.99533ZM3.78314 52.775L15.048 12.3931L13.1215 11.8557L1.85669 52.2376L3.78314 52.775ZM63.7301 5.68217L25.7771 17.6909L26.3804 19.5977L64.3335 7.589L63.7301 5.68217ZM14.3485 13.089L54.5797 2.09008L54.0523 0.160879L13.821 11.1598L14.3485 13.089ZM43.5762 48.8537L47.9534 36.3424L46.0656 35.682L41.6884 48.1933L43.5762 48.8537ZM41.6634 28.6479L64.1777 15.7399L63.183 14.0049L40.6687 26.9129L41.6634 28.6479ZM15.1554 65.3272L3.20934 59.5905L2.34357 61.3934L14.2896 67.1301L15.1554 65.3272ZM3.06406 61.4497L42.9199 49.4813L42.3447 47.5658L2.48885 59.5342L3.06406 61.4497ZM22.5184 39.3132L2.29898 51.6527L3.34084 53.3599L23.5602 41.0204L22.5184 39.3132ZM52.1699 55.516L29.441 61.2802L29.9327 63.2188L52.6615 57.4546L52.1699 55.516ZM29.4299 61.2831L14.4655 65.2622L14.9794 67.195L29.9438 63.2159L29.4299 61.2831ZM18.7485 33.1147L41.3551 28.7624L40.977 26.7984L18.3704 31.1508L18.7485 33.1147ZM46.8387 35.0269L22.8685 39.1815L23.2101 41.1521L47.1803 36.9975L46.8387 35.0269Z"
                        fill="white" />
                </svg>
