<svg width="79" height="79" viewBox="0 0 79 79" fill="none" xmlns="http://www.w3.org/2000/svg">
<path d="M0 0V79H79V0H0ZM41.2317 67.5801C40.068 69.9454 37.8441 71.5004 35.2693 72.2501C31.3112 73.1588 27.5273 72.6413 24.7102 70.9501C22.8246 69.7939 21.3529 68.0143 20.3558 65.9646C22.3601 64.7403 24.3593 63.5085 26.3636 62.2842C26.4166 62.3069 26.5731 62.5922 26.7852 62.9607C27.55 64.2456 28.2114 65.1543 29.5114 65.7904C30.7887 66.2246 33.5881 66.5048 34.671 64.2582C35.3324 63.1172 35.1204 59.3712 35.1204 55.3096C35.1204 48.9257 35.1507 42.6478 35.1507 36.1856H42.5392C42.5392 42.9709 42.5771 49.7738 42.5392 56.549C42.5544 60.7015 42.9154 64.4778 41.2317 67.5801ZM71.8866 65.4926C69.3194 74.2796 54.9966 74.5648 49.2766 68.759C48.0674 67.3933 47.3101 66.679 46.5882 65.1013C49.63 63.352 49.63 63.352 52.5884 61.6405C54.1964 64.1118 55.6832 65.4698 58.3564 66.0252C61.9838 66.4669 65.6339 65.2225 64.816 61.3704C63.9755 58.2226 57.3896 57.4578 52.9065 54.0929C48.3552 51.036 47.2899 43.6095 51.0284 39.3662C52.2754 37.7961 54.4009 36.6248 56.6298 36.0619L58.9572 35.7615C63.4252 35.6707 66.2196 36.8495 68.2693 39.1416C68.8398 39.7196 69.3042 40.3431 70.1776 41.6961C67.7972 43.2132 67.8048 43.1981 64.3945 45.4068C63.665 43.8367 62.4584 42.8522 61.1811 42.4256C59.1995 41.8249 56.6979 42.4787 56.1805 44.5738C56.0012 45.22 56.0391 45.8208 56.3244 46.8861C57.1271 48.7187 59.823 49.5138 62.2413 50.6245C69.2033 53.4492 71.5534 56.4733 72.1314 60.078C72.6868 63.1803 71.9951 65.1922 71.8916 65.4926H71.8866Z" fill="url(#paint0_linear_242_99)"/>
<defs>
<linearGradient id="paint0_linear_242_99" x1="39.5" y1="0" x2="39.5" y2="79" gradientUnits="userSpaceOnUse">
<stop stop-color="#A3DFB7"/>
<stop offset="0.5" stop-color="#2A98DC"/>
<stop offset="1" stop-color="#6DDBDF"/>
</linearGradient>
</defs>
</svg>
