<svg width="100" height="100" viewBox="0 0 100 100" fill="none" xmlns="http://www.w3.org/2000/svg">
<g clip-path="url(#clip0_242_104)">
<path d="M44.9583 42.1895C43.239 43.0726 41.8526 44.3894 40.9746 45.9734C40.0965 47.5574 39.7661 49.3374 40.0253 51.0885C40.2844 52.8395 41.1214 54.4828 42.4305 55.8106C43.7395 57.1385 45.4617 58.0912 47.3794 58.5482C49.297 59.0053 51.324 58.9462 53.2039 58.3785C55.0838 57.8107 56.7323 56.7598 57.9408 55.3586C59.1493 53.9574 59.8636 52.2688 59.9933 50.5065C60.1231 48.7441 59.6625 46.9871 58.6698 45.4576C57.3385 43.4068 55.1461 41.9104 52.5748 41.2976C50.0034 40.6847 47.2637 41.0055 44.9583 42.1895ZM89.9482 51.8779C89.2892 51.2079 88.5939 50.5361 87.8621 49.8625C88.3733 49.3846 88.8678 48.9071 89.3459 48.4301C98.3714 39.4087 102.181 30.3616 98.651 24.9224C95.2666 19.7074 85.1989 18.1533 72.5951 20.3335C71.3536 20.5496 70.119 20.7933 68.8912 21.0647C68.6562 20.3439 68.4062 19.6272 68.1413 18.9147C63.8655 7.45208 56.9585 -0.00394842 49.899 1.56868e-06C43.1297 0.00275156 36.5872 6.98543 32.4135 17.7874C32.0029 18.8531 31.623 19.9276 31.2739 21.011C30.453 20.8318 29.6287 20.6663 28.8009 20.5145C15.5029 18.0856 4.79225 19.6853 1.26952 25.1275C-2.10836 30.3463 1.42426 38.8765 9.86042 47.488C10.6971 48.34 11.5574 49.173 12.4414 49.9868C11.3993 50.9418 10.4125 51.8962 9.49267 52.8453C1.26098 61.3353 -2.06963 69.726 1.3028 74.9223C4.78573 80.2897 15.3457 82.0441 28.1988 79.7941C29.2405 79.6104 30.2764 79.4037 31.3065 79.1741C31.6838 80.3459 32.0978 81.5076 32.5483 82.6591C36.7036 93.2443 43.2094 100.002 49.9548 100C56.921 99.9964 63.9044 92.7356 68.1355 81.7063C68.4696 80.8347 68.7859 79.9296 69.0857 78.9976C70.4164 79.2921 71.7557 79.5534 73.1035 79.7816C85.4873 81.8659 95.3183 80.2266 98.6846 75.0266C102.161 69.6552 98.5768 60.6465 89.9482 51.8779ZM5.43084 27.2591C7.59954 23.9091 16.3527 22.6022 27.8343 24.6991C28.5682 24.8334 29.3145 24.9834 30.0734 25.1491C28.9525 29.5604 28.1615 34.033 27.7058 38.5374C23.5629 41.1302 19.6131 43.9588 15.881 47.0054C15.0587 46.2489 14.2584 45.4741 13.48 44.6809C6.25176 37.3024 3.39517 30.404 5.43084 27.2591ZM27.2756 55.8995C24.406 53.9665 21.7392 51.9862 19.3187 49.9945C21.7375 48.0152 24.406 46.0416 27.2697 44.1138C27.1668 46.0776 27.1158 48.0429 27.1167 50.0098C27.1183 51.9737 27.1712 53.937 27.2756 55.8995ZM27.2721 75.6025C22.4007 76.5661 17.3715 76.7239 12.4358 76.0682C11.0828 75.9745 9.76573 75.6349 8.56605 75.0705C7.36636 74.506 6.30953 73.7288 5.46085 72.7866C3.41462 69.6333 6.08899 62.8967 13.1289 55.6355C14.014 54.7255 14.9281 53.8393 15.8712 52.9768C19.6039 56.0395 23.5601 58.8791 27.7141 61.4772C28.1761 66.0391 28.9764 70.569 30.1096 75.0371C29.1692 75.2463 28.2234 75.4348 27.2721 75.6025ZM67.1836 35.4058C65.2985 34.3491 63.3902 33.3264 61.4586 32.3376C59.5577 31.3642 57.634 30.4274 55.6875 29.5272C59.0204 28.2806 62.2966 27.2158 65.4595 26.3482C66.2051 29.3397 66.7805 32.3627 67.1836 35.4058ZM36.9548 19.176C40.5307 9.92032 45.8218 4.27339 49.9016 4.27184C54.2466 4.26999 59.8921 10.3631 63.5836 20.2599C63.8234 20.9051 64.0501 21.5539 64.2637 22.2063C59.4139 23.5445 54.6689 25.1667 50.0599 27.0623C45.4701 25.1444 40.7401 23.5041 35.902 22.1526C36.2254 21.1529 36.5764 20.1607 36.9548 19.176ZM34.7045 26.2949C38.0036 27.2189 41.2483 28.2902 44.426 29.5049C40.4886 31.3126 36.6529 33.2816 32.919 35.4119C33.3701 32.2219 33.9704 29.1656 34.7045 26.2949ZM32.9272 64.5982C34.7893 65.6586 36.6785 66.6799 38.595 67.6618C40.55 68.6631 42.5309 69.6224 44.5379 70.5396C41.3358 71.7964 38.0633 72.906 34.7333 73.8642C33.9906 70.9538 33.3838 67.8437 32.9272 64.5982ZM63.5906 80.3257C62.0953 84.5613 59.7365 88.516 56.6319 91.9919C55.8648 92.9876 54.8759 93.8331 53.727 94.4755C52.5782 95.1179 51.2934 95.5439 49.9522 95.7272C45.8594 95.7293 40.6355 90.3022 37.0819 81.25C36.6634 80.1797 36.2784 79.0998 35.9268 78.01C40.788 76.6149 45.5372 74.9282 50.1419 72.9615C54.7888 74.8694 59.5715 76.5038 64.4592 77.8541C64.1923 78.684 63.9028 79.5078 63.5906 80.3257ZM65.6265 73.7046C62.4273 72.8246 59.1035 71.742 55.7225 70.4771C57.6285 69.5848 59.5483 68.6424 61.4819 67.65C63.4661 66.6307 65.3997 65.5858 67.2827 64.5155C66.9077 67.6018 66.3549 70.6688 65.6265 73.7046ZM68.1348 49.9913C68.139 53.0278 68.0324 56.0619 67.8152 59.0935C65.0461 60.7606 62.1227 62.3885 59.081 63.9506C56.0519 65.5064 53.0507 66.9362 50.1066 68.2301C47.0086 66.9093 43.9702 65.486 40.9916 63.9601C38.0298 62.4434 35.1358 60.8285 32.3098 59.1151C32.0515 56.0844 31.9214 53.0482 31.9195 50.0066C31.9171 46.967 32.0451 43.9316 32.302 40.8983C35.0703 39.2165 37.9725 37.5899 40.9731 36.0488C43.9874 34.5003 47.0263 33.0767 50.0483 31.7864C53.1083 33.1093 56.113 34.5271 59.0625 36.0396C62.0223 37.553 64.9243 39.1508 67.7686 40.833C68.0128 43.8811 68.1347 46.9339 68.1348 49.9913ZM73.5121 24.5272C84.3108 22.6586 92.453 23.9156 94.4927 27.0583C96.6655 30.4064 93.5514 37.8008 85.7595 45.5901C85.3289 46.0198 84.882 46.4516 84.4192 46.8849C80.6225 43.8318 76.5965 41.0122 72.3692 38.4456C71.9426 33.9905 71.1813 29.5657 70.0903 25.201C71.2531 24.9465 72.3937 24.7219 73.5121 24.5272ZM72.7821 43.9507C75.6335 45.8027 78.375 47.7851 80.9956 49.8899C78.3866 52.0292 75.6538 54.0458 72.8082 55.9314C72.8953 53.9517 72.9382 51.971 72.9368 49.9893C72.9358 47.976 72.8842 45.9631 72.7821 43.9507ZM94.5225 72.8944C92.4797 76.0502 84.5863 77.3661 73.9954 75.5836C72.7818 75.3797 71.5364 75.1371 70.2593 74.8557C71.3239 70.4349 72.0515 65.9551 72.437 61.447C76.6572 58.8356 80.6705 55.9691 84.4483 52.8676C85.1094 53.4786 85.7382 54.0867 86.3347 54.6919C89.713 57.9597 92.3862 61.7524 94.2206 65.8812C94.8073 66.9697 95.1367 68.1537 95.1887 69.3599C95.2406 70.5662 95.0139 71.7691 94.5225 72.8944Z" fill="url(#paint0_linear_242_104)"/>
</g>
<defs>
<linearGradient id="paint0_linear_242_104" x1="50" y1="0" x2="50" y2="100" gradientUnits="userSpaceOnUse">
<stop stop-color="#A3DFB7"/>
<stop offset="0.5" stop-color="#2A98DC"/>
<stop offset="1" stop-color="#6DDBDF"/>
</linearGradient>
<clipPath id="clip0_242_104">
<rect width="100" height="100" fill="white"/>
</clipPath>
</defs>
</svg>
