<svg width="100" height="69" viewBox="0 0 100 69" fill="none" xmlns="http://www.w3.org/2000/svg">
<path d="M99.9579 48.8308C99.6317 46.1651 98.154 44.0977 95.8964 42.4766C96.4544 42.8765 96.9267 43.2148 95.8857 42.4686C94.4816 41.4628 95.2255 41.9959 95.8765 42.4623C90.3101 38.4828 83.0491 39.3673 76.9833 41.578C74.5522 37.5998 74.4468 34.5638 75.8474 30.2211C76.0288 29.6722 75.905 29.3676 75.3349 29.1226C73.9509 28.5286 71.9577 28.8428 70.5649 29.2133C70.0841 29.34 69.7341 29.5858 69.6274 30.0721C68.6208 34.8243 65.5241 39.1769 62.8251 43.1833C60.9245 39.527 61.0751 36.6975 62.3536 32.8889C62.5095 32.4252 62.4378 32.1786 61.9753 31.9325C60.5573 31.1961 58.3813 31.5578 56.9362 31.9867C55.2743 32.4732 52.778 40.7281 51.9808 42.3652C50.3145 45.7843 48.838 51.1206 46.0071 53.8329C43.6048 50.7344 50.4067 43.7345 48.1325 40.9247C47.3634 39.9744 45.9718 39.9989 45.0884 40.8039C45.3003 39.3126 45.4102 38.3323 45.0259 37.0672C44.6194 35.7362 43.5882 34.9723 42.0786 35.0109C38.564 35.1142 35.4686 37.7189 33.3597 40.1853C31.3524 42.5581 26.0587 44.0326 23.2126 45.4636C18.3235 41.1889 7.73972 36.653 7.46414 29.3739C7.1657 21.1711 16.9014 15.6043 23.4011 12.2752C31.8542 7.94236 44.8778 2.55096 54.4827 7.28922C57.0313 8.5465 58.0567 11.2432 57.3552 13.8262C55.5255 20.5627 48.1368 25.0569 41.71 27.1179C38.5481 28.1323 35.0755 28.8873 31.7296 28.6911C27.2462 28.4279 23.755 25.7069 23.2763 25.5379C22.8761 25.4617 22.9075 25.9811 23.0132 26.2561C27.6647 38.4944 51.2196 29.526 57.3796 23.2431C60.3462 20.2202 62.1478 17.2909 62.9169 12.6787C63.8185 7.27177 59.8634 3.88862 56.8614 2.49392C41.6431 -4.57699 20.6044 4.6831 9.09714 14.1233C4.10339 18.2204 -2.14349 24.7301 0.723313 31.5587C3.83464 38.9694 13.3671 42.7693 19.5716 47.3017C14.5512 49.8055 8.27039 52.3949 5.01726 57.0897C3.1571 59.7808 2.49714 62.6487 3.8823 65.708C6.33777 71.1119 15.2661 68.7702 19.0333 66.3884C22.4845 64.2066 24.8073 61.2781 25.8106 57.5227C26.6807 54.2669 26.5022 50.8842 25.0575 47.8172L30.6405 44.9831C29.1372 49.5065 28.4731 55.1769 31.5938 59.2643C32.8442 60.8988 36.0893 60.9648 37.4175 59.3253C39.1393 57.1802 40.2815 54.4924 41.422 52.0321C41.2888 53.8694 41.0595 55.9518 41.6909 57.5531C42.4155 59.3904 44.0593 59.7663 45.7518 58.6004C50.9315 55.0322 54.228 45.1431 56.7798 39.3781C57.4735 41.8928 58.2394 44.19 59.5058 46.5086C59.8187 47.0776 59.7806 47.4444 59.3503 47.919C57.4587 50.0115 52.939 53.5015 52.5009 56.3281C52.3985 56.9889 52.8354 57.6217 53.6114 57.7728C56.653 58.382 60.0251 57.2767 62.4946 55.6013C65.0704 53.8524 65.9021 51.4677 65.2769 48.6395C64.3831 44.5679 67.4239 40.0185 70.3161 36.6763C70.8472 39.2065 71.6474 41.6417 73.0784 43.8519C70.5247 46.1028 66.7151 49.2942 67.2622 53.053C67.4552 54.3987 68.6558 55.2682 70.097 54.9614C73.1796 54.3099 75.8423 52.9791 77.7864 50.6203C79.5487 48.4925 78.9177 46.1704 78.1489 43.8311C82.8114 42.4952 87.5282 42.2282 92.1784 43.8258C94.4235 44.5923 96.2321 45.884 97.305 47.9066C98.6187 50.3851 97.879 52.6684 95.3421 54.2977C94.7001 54.7101 94.2558 55.0491 94.473 55.2274C94.6901 55.406 95.43 55.6416 97.0675 54.6096C98.705 53.5771 99.7062 52.1822 99.9626 50.351C100.014 49.8455 100.012 49.336 99.9579 48.8308ZM22.0598 53.7822C21.7946 57.0505 20.1778 59.7007 17.5335 61.8414C16.0458 63.0485 14.1932 64.0322 12.3538 64.2117C10.5143 64.3915 9.0821 63.9253 8.95964 62.0104C8.61511 56.6212 16.9524 51.3421 21.5817 49.7525C21.9763 51.0973 22.1698 52.4314 22.0567 53.7881L22.0598 53.7822ZM42.197 39.5798C41.4347 43.9528 39.3005 51.8012 35.8856 54.9354C35.4255 55.3555 34.9852 55.3309 34.7511 54.7842C32.7306 50.0681 35.4681 40.3435 41.2124 38.8421C41.8876 38.6679 42.3065 38.9562 42.197 39.5798ZM55.9296 55.6081C57.5745 53.8514 59.2175 52.0962 60.8649 50.3298C61.0686 52.2942 57.4331 56.2034 55.9296 55.6081ZM71.694 52.1393C71.2354 52.3888 70.2056 52.6323 70.1653 52.303C69.8759 49.9341 72.4731 47.4271 74.0847 46.2524C74.9544 48.4759 73.9249 50.9244 71.694 52.1393Z" fill="url(#paint0_linear_242_109)"/>
<defs>
<linearGradient id="paint0_linear_242_109" x1="50" y1="0" x2="50" y2="69" gradientUnits="userSpaceOnUse">
<stop stop-color="#A3DFB7"/>
<stop offset="0.5" stop-color="#2A98DC"/>
<stop offset="1" stop-color="#6DDBDF"/>
</linearGradient>
</defs>
</svg>
