<svg width="100" height="64" viewBox="0 0 100 64" fill="none" xmlns="http://www.w3.org/2000/svg">
<path d="M82.5 18.7461C78.7503 17.3712 75.4404 14.8992 72.95 11.6134C70.2052 7.95253 66.7103 5.00848 62.7325 3.00648C58.7547 1.00448 54.3995 -0.00242095 50 0.0628078C44.0818 -0.383379 38.2229 1.55984 33.59 5.50548C28.9571 9.45111 25.8902 15.1097 25 21.3543C26.7534 18.231 29.3923 15.7805 32.537 14.3553C35.6817 12.9301 39.17 12.6038 42.5 13.4232C46.2435 14.8381 49.5479 17.3245 52.05 20.6091C54.8098 24.2407 58.3114 27.1544 62.2883 29.1283C66.2653 31.1022 70.6128 32.0843 75 32C80.9182 32.4462 86.7771 30.503 91.41 26.5573C96.0429 22.6117 99.1098 16.9531 100 10.7085C98.2785 13.8691 95.648 16.3566 92.4968 17.8039C89.3457 19.2512 85.841 19.5815 82.5 18.7461ZM17.5 45.2539C21.2497 46.6288 24.5596 49.1008 27.05 52.3866C29.7948 56.0475 33.2897 58.9915 37.2675 60.9935C41.2453 62.9955 45.6005 64.0024 50 63.9372C55.9182 64.3834 61.7771 62.4402 66.41 58.4945C71.0429 54.5489 74.1098 48.8903 75 42.6457C73.2466 45.7689 70.6077 48.2195 67.463 49.6447C64.3183 51.0699 60.83 51.3962 57.5 50.5768C53.7565 49.1619 50.4521 46.6755 47.95 43.3909C45.1828 39.7683 41.6798 36.861 37.7045 34.888C33.7293 32.9149 29.3855 31.9275 25 32C19.0818 31.5538 13.2229 33.497 8.59003 37.4427C3.95714 41.3883 0.89021 47.0469 0 53.2915C1.72153 50.1309 4.35204 47.6433 7.50317 46.1961C10.6543 44.7488 14.159 44.4185 17.5 45.2539Z" fill="url(#paint0_linear_242_107)"/>
<defs>
<linearGradient id="paint0_linear_242_107" x1="50" y1="0" x2="50" y2="64" gradientUnits="userSpaceOnUse">
<stop stop-color="#A3DFB7"/>
<stop offset="0.5" stop-color="#2A98DC"/>
<stop offset="1" stop-color="#6DDBDF"/>
</linearGradient>
</defs>
</svg>
