<svg width="34" height="34" viewBox="0 0 34 34" fill="none" xmlns="http://www.w3.org/2000/svg">
<path d="M10.5749 15.4831L14.9447 8.68171L32.5978 4.06199L28.7528 0.696298L10.176 4.67634L2.04516 25.5551L11.9164 19.9457L22.7963 18.8452L19.8866 25.2732L1.39893 29.7842L6.20807 33.3724L13.1091 31.9513L23.5689 29.941L31.7962 8.41008L20.8699 14.2153L10.5749 15.4831Z" fill="url(#paint0_linear_262_129)"/>
<path d="M10.5749 15.4831L10.3646 15.348L10.0765 15.7964L10.6054 15.7313L10.5749 15.4831ZM14.9447 8.68171L14.8814 8.43985L14.7871 8.46454L14.7344 8.54657L14.9447 8.68171ZM32.5978 4.06199L32.6611 4.30385L33.1173 4.18447L32.7625 3.87388L32.5978 4.06199ZM28.7528 0.696298L28.9174 0.508185L28.8231 0.425567L28.7004 0.451845L28.7528 0.696298ZM10.176 4.67634L10.1236 4.43189L9.99187 4.46011L9.94299 4.58562L10.176 4.67634ZM2.04516 25.5551L1.8122 25.4643L1.55683 26.1201L2.16868 25.7724L2.04516 25.5551ZM11.9164 19.9457L11.8912 19.6969L11.8387 19.7023L11.7929 19.7283L11.9164 19.9457ZM22.7963 18.8452L23.024 18.9483L23.2031 18.5528L22.7711 18.5965L22.7963 18.8452ZM19.8866 25.2732L19.9459 25.5161L20.0641 25.4872L20.1144 25.3763L19.8866 25.2732ZM1.39893 29.7842L1.33967 29.5414L0.823991 29.6672L1.24943 29.9846L1.39893 29.7842ZM6.20807 33.3724L6.05857 33.5728L6.14855 33.6399L6.2585 33.6172L6.20807 33.3724ZM13.1091 31.9513L13.0619 31.7058L13.0587 31.7065L13.1091 31.9513ZM23.5689 29.941L23.6161 30.1865L23.7527 30.1603L23.8024 30.0303L23.5689 29.941ZM31.7962 8.41008L32.0298 8.49931L32.2678 7.87645L31.6789 8.1893L31.7962 8.41008ZM20.8699 14.2153L20.9005 14.4634L20.9464 14.4578L20.9872 14.4361L20.8699 14.2153ZM10.7852 15.6183L15.155 8.81684L14.7344 8.54657L10.3646 15.348L10.7852 15.6183ZM15.008 8.92356L32.6611 4.30385L32.5345 3.82014L14.8814 8.43985L15.008 8.92356ZM32.7625 3.87388L28.9174 0.508185L28.5881 0.88441L32.4331 4.25011L32.7625 3.87388ZM28.7004 0.451845L10.1236 4.43189L10.2283 4.9208L28.8051 0.94075L28.7004 0.451845ZM9.94299 4.58562L1.8122 25.4643L2.27812 25.6458L10.4089 4.76707L9.94299 4.58562ZM2.16868 25.7724L12.0399 20.163L11.7929 19.7283L1.92165 25.3377L2.16868 25.7724ZM11.9416 20.1944L22.8214 19.094L22.7711 18.5965L11.8912 19.6969L11.9416 20.1944ZM22.5685 18.7421L19.6588 25.1701L20.1144 25.3763L23.024 18.9483L22.5685 18.7421ZM19.8273 25.0304L1.33967 29.5414L1.45819 30.0271L19.9459 25.5161L19.8273 25.0304ZM1.24943 29.9846L6.05857 33.5728L6.35757 33.172L1.54843 29.5839L1.24943 29.9846ZM6.2585 33.6172L13.1595 32.1962L13.0587 31.7065L6.15765 33.1275L6.2585 33.6172ZM13.1563 32.1968L23.6161 30.1865L23.5217 29.6955L13.0619 31.7058L13.1563 32.1968ZM23.8024 30.0303L32.0298 8.49931L31.5627 8.32084L23.3353 29.8518L23.8024 30.0303ZM31.6789 8.1893L20.7526 13.9945L20.9872 14.4361L31.9135 8.63085L31.6789 8.1893ZM20.8394 13.9672L10.5443 15.235L10.6054 15.7313L20.9005 14.4634L20.8394 13.9672Z" fill="black"/>
<defs>
<linearGradient id="paint0_linear_262_129" x1="16.7751" y1="0.862774" x2="17.2249" y2="33.2193" gradientUnits="userSpaceOnUse">
<stop stop-color="#0019FF"/>
<stop offset="0.5" stop-color="#5B64BC"/>
<stop offset="1" stop-color="#0700D5"/>
</linearGradient>
</defs>
</svg>
